<mxfile host="app.diagrams.net" modified="2023-04-14T11:56:28.294Z" agent="Mozilla/5.0 (Macintosh; Intel Mac OS X 10_15_7) AppleWebKit/537.36 (KHTML, like Gecko) Chrome/112.0.0.0 Safari/537.36" etag="R-1qLmEKQdoB2WJuiaeX" version="21.1.7" type="github">
  <diagram name="Page-1" id="QoV8lFBBTm_fB04FauwV">
    <mxGraphModel dx="2879" dy="1320" grid="1" gridSize="10" guides="1" tooltips="1" connect="1" arrows="1" fold="1" page="1" pageScale="1" pageWidth="827" pageHeight="1169" math="0" shadow="0">
      <root>
        <mxCell id="0" />
        <mxCell id="1" parent="0" />
        <mxCell id="c3MU4zFBi6VKXaB5HFcI-3" value="" style="edgeStyle=orthogonalEdgeStyle;rounded=0;orthogonalLoop=1;jettySize=auto;html=1;" parent="1" source="c3MU4zFBi6VKXaB5HFcI-1" target="c3MU4zFBi6VKXaB5HFcI-2" edge="1">
          <mxGeometry relative="1" as="geometry" />
        </mxCell>
        <mxCell id="c3MU4zFBi6VKXaB5HFcI-1" value="CA VIEW&amp;nbsp;" style="rounded=1;whiteSpace=wrap;html=1;" parent="1" vertex="1">
          <mxGeometry x="-550" y="380" width="120" height="60" as="geometry" />
        </mxCell>
        <mxCell id="c3MU4zFBi6VKXaB5HFcI-7" value="" style="edgeStyle=orthogonalEdgeStyle;rounded=0;orthogonalLoop=1;jettySize=auto;html=1;" parent="1" source="c3MU4zFBi6VKXaB5HFcI-2" target="c3MU4zFBi6VKXaB5HFcI-6" edge="1">
          <mxGeometry relative="1" as="geometry" />
        </mxCell>
        <mxCell id="df2VkAJ07nrxbvZ864---10" value="" style="edgeStyle=orthogonalEdgeStyle;rounded=0;orthogonalLoop=1;jettySize=auto;html=1;" edge="1" parent="1" source="c3MU4zFBi6VKXaB5HFcI-2">
          <mxGeometry relative="1" as="geometry">
            <mxPoint x="-680" y="650" as="targetPoint" />
          </mxGeometry>
        </mxCell>
        <mxCell id="df2VkAJ07nrxbvZ864---11" style="edgeStyle=orthogonalEdgeStyle;rounded=0;orthogonalLoop=1;jettySize=auto;html=1;" edge="1" parent="1" source="c3MU4zFBi6VKXaB5HFcI-2">
          <mxGeometry relative="1" as="geometry">
            <mxPoint x="-620" y="730" as="targetPoint" />
          </mxGeometry>
        </mxCell>
        <mxCell id="df2VkAJ07nrxbvZ864---14" style="edgeStyle=orthogonalEdgeStyle;rounded=0;orthogonalLoop=1;jettySize=auto;html=1;entryX=0.667;entryY=0;entryDx=0;entryDy=0;entryPerimeter=0;" edge="1" parent="1" source="c3MU4zFBi6VKXaB5HFcI-2" target="df2VkAJ07nrxbvZ864---4">
          <mxGeometry relative="1" as="geometry" />
        </mxCell>
        <mxCell id="df2VkAJ07nrxbvZ864---15" style="edgeStyle=orthogonalEdgeStyle;rounded=0;orthogonalLoop=1;jettySize=auto;html=1;" edge="1" parent="1" source="c3MU4zFBi6VKXaB5HFcI-2">
          <mxGeometry relative="1" as="geometry">
            <mxPoint x="-490" y="800" as="targetPoint" />
          </mxGeometry>
        </mxCell>
        <mxCell id="df2VkAJ07nrxbvZ864---16" style="edgeStyle=orthogonalEdgeStyle;rounded=0;orthogonalLoop=1;jettySize=auto;html=1;entryX=0.317;entryY=0.014;entryDx=0;entryDy=0;entryPerimeter=0;" edge="1" parent="1" source="c3MU4zFBi6VKXaB5HFcI-2" target="c3MU4zFBi6VKXaB5HFcI-4">
          <mxGeometry relative="1" as="geometry" />
        </mxCell>
        <mxCell id="c3MU4zFBi6VKXaB5HFcI-2" value="BFF&amp;nbsp;" style="whiteSpace=wrap;html=1;rounded=1;" parent="1" vertex="1">
          <mxGeometry x="-550" y="500" width="120" height="60" as="geometry" />
        </mxCell>
        <mxCell id="c3MU4zFBi6VKXaB5HFcI-4" value="Save Form to DB&amp;nbsp;" style="whiteSpace=wrap;html=1;rounded=1;" parent="1" vertex="1">
          <mxGeometry x="-460" y="880" width="120" height="60" as="geometry" />
        </mxCell>
        <mxCell id="c3MU4zFBi6VKXaB5HFcI-6" value="Start Camunda Process" style="whiteSpace=wrap;html=1;rounded=1;" parent="1" vertex="1">
          <mxGeometry x="-410" y="570" width="120" height="60" as="geometry" />
        </mxCell>
        <mxCell id="c3MU4zFBi6VKXaB5HFcI-13" value="" style="edgeStyle=orthogonalEdgeStyle;rounded=0;orthogonalLoop=1;jettySize=auto;html=1;" parent="1" source="c3MU4zFBi6VKXaB5HFcI-8" target="c3MU4zFBi6VKXaB5HFcI-12" edge="1">
          <mxGeometry relative="1" as="geometry" />
        </mxCell>
        <mxCell id="c3MU4zFBi6VKXaB5HFcI-8" value="KEYCLOCK AUTH" style="rounded=1;whiteSpace=wrap;html=1;verticalAlign=top;" parent="1" vertex="1">
          <mxGeometry x="-130" y="120" width="180" height="80" as="geometry" />
        </mxCell>
        <mxCell id="c3MU4zFBi6VKXaB5HFcI-14" value="" style="edgeStyle=orthogonalEdgeStyle;rounded=0;orthogonalLoop=1;jettySize=auto;html=1;" parent="1" source="c3MU4zFBi6VKXaB5HFcI-12" target="c3MU4zFBi6VKXaB5HFcI-1" edge="1">
          <mxGeometry relative="1" as="geometry" />
        </mxCell>
        <mxCell id="c3MU4zFBi6VKXaB5HFcI-32" value="" style="edgeStyle=orthogonalEdgeStyle;rounded=0;orthogonalLoop=1;jettySize=auto;html=1;" parent="1" source="c3MU4zFBi6VKXaB5HFcI-12" target="c3MU4zFBi6VKXaB5HFcI-26" edge="1">
          <mxGeometry relative="1" as="geometry" />
        </mxCell>
        <mxCell id="c3MU4zFBi6VKXaB5HFcI-12" value="AUTHORIZE ON ROLE&amp;nbsp;" style="whiteSpace=wrap;html=1;rounded=1;" parent="1" vertex="1">
          <mxGeometry x="-100" y="250" width="120" height="60" as="geometry" />
        </mxCell>
        <mxCell id="c3MU4zFBi6VKXaB5HFcI-25" value="" style="edgeStyle=orthogonalEdgeStyle;rounded=0;orthogonalLoop=1;jettySize=auto;html=1;" parent="1" source="c3MU4zFBi6VKXaB5HFcI-26" target="c3MU4zFBi6VKXaB5HFcI-29" edge="1">
          <mxGeometry relative="1" as="geometry" />
        </mxCell>
        <mxCell id="c3MU4zFBi6VKXaB5HFcI-26" value="GEST VIEW" style="rounded=1;whiteSpace=wrap;html=1;" parent="1" vertex="1">
          <mxGeometry x="-100" y="360" width="120" height="60" as="geometry" />
        </mxCell>
        <mxCell id="c3MU4zFBi6VKXaB5HFcI-27" value="" style="edgeStyle=orthogonalEdgeStyle;rounded=0;orthogonalLoop=1;jettySize=auto;html=1;" parent="1" source="c3MU4zFBi6VKXaB5HFcI-29" target="c3MU4zFBi6VKXaB5HFcI-30" edge="1">
          <mxGeometry relative="1" as="geometry" />
        </mxCell>
        <mxCell id="c3MU4zFBi6VKXaB5HFcI-28" value="" style="edgeStyle=orthogonalEdgeStyle;rounded=0;orthogonalLoop=1;jettySize=auto;html=1;" parent="1" source="c3MU4zFBi6VKXaB5HFcI-29" target="c3MU4zFBi6VKXaB5HFcI-31" edge="1">
          <mxGeometry relative="1" as="geometry" />
        </mxCell>
        <mxCell id="c3MU4zFBi6VKXaB5HFcI-29" value="BFF&amp;nbsp;" style="whiteSpace=wrap;html=1;rounded=1;" parent="1" vertex="1">
          <mxGeometry x="-100" y="490" width="120" height="60" as="geometry" />
        </mxCell>
        <mxCell id="c3MU4zFBi6VKXaB5HFcI-30" value="Save Form to DB&amp;nbsp;" style="whiteSpace=wrap;html=1;rounded=1;" parent="1" vertex="1">
          <mxGeometry x="-230" y="560" width="120" height="60" as="geometry" />
        </mxCell>
        <mxCell id="c3MU4zFBi6VKXaB5HFcI-42" value="" style="edgeStyle=orthogonalEdgeStyle;rounded=0;orthogonalLoop=1;jettySize=auto;html=1;" parent="1" source="c3MU4zFBi6VKXaB5HFcI-31" target="c3MU4zFBi6VKXaB5HFcI-41" edge="1">
          <mxGeometry relative="1" as="geometry" />
        </mxCell>
        <mxCell id="c3MU4zFBi6VKXaB5HFcI-45" value="" style="edgeStyle=orthogonalEdgeStyle;rounded=0;orthogonalLoop=1;jettySize=auto;html=1;" parent="1" source="c3MU4zFBi6VKXaB5HFcI-31" target="c3MU4zFBi6VKXaB5HFcI-44" edge="1">
          <mxGeometry relative="1" as="geometry" />
        </mxCell>
        <mxCell id="c3MU4zFBi6VKXaB5HFcI-31" value="COMPLETE TASK&amp;nbsp;" style="whiteSpace=wrap;html=1;rounded=1;" parent="1" vertex="1">
          <mxGeometry x="30" y="560" width="120" height="60" as="geometry" />
        </mxCell>
        <mxCell id="c3MU4zFBi6VKXaB5HFcI-33" value="" style="edgeStyle=orthogonalEdgeStyle;rounded=0;orthogonalLoop=1;jettySize=auto;html=1;exitX=1;exitY=0.5;exitDx=0;exitDy=0;" parent="1" source="c3MU4zFBi6VKXaB5HFcI-12" target="c3MU4zFBi6VKXaB5HFcI-35" edge="1">
          <mxGeometry relative="1" as="geometry">
            <mxPoint x="370" y="310" as="sourcePoint" />
          </mxGeometry>
        </mxCell>
        <mxCell id="c3MU4zFBi6VKXaB5HFcI-34" value="" style="edgeStyle=orthogonalEdgeStyle;rounded=0;orthogonalLoop=1;jettySize=auto;html=1;" parent="1" source="c3MU4zFBi6VKXaB5HFcI-35" target="c3MU4zFBi6VKXaB5HFcI-38" edge="1">
          <mxGeometry relative="1" as="geometry" />
        </mxCell>
        <mxCell id="c3MU4zFBi6VKXaB5HFcI-35" value="APPROB VIEW" style="rounded=1;whiteSpace=wrap;html=1;" parent="1" vertex="1">
          <mxGeometry x="340" y="350" width="120" height="60" as="geometry" />
        </mxCell>
        <mxCell id="c3MU4zFBi6VKXaB5HFcI-36" value="" style="edgeStyle=orthogonalEdgeStyle;rounded=0;orthogonalLoop=1;jettySize=auto;html=1;" parent="1" source="c3MU4zFBi6VKXaB5HFcI-38" target="c3MU4zFBi6VKXaB5HFcI-39" edge="1">
          <mxGeometry relative="1" as="geometry" />
        </mxCell>
        <mxCell id="c3MU4zFBi6VKXaB5HFcI-37" value="" style="edgeStyle=orthogonalEdgeStyle;rounded=0;orthogonalLoop=1;jettySize=auto;html=1;" parent="1" source="c3MU4zFBi6VKXaB5HFcI-38" target="c3MU4zFBi6VKXaB5HFcI-40" edge="1">
          <mxGeometry relative="1" as="geometry" />
        </mxCell>
        <mxCell id="c3MU4zFBi6VKXaB5HFcI-38" value="BFF&amp;nbsp;" style="whiteSpace=wrap;html=1;rounded=1;" parent="1" vertex="1">
          <mxGeometry x="340" y="480" width="120" height="60" as="geometry" />
        </mxCell>
        <mxCell id="c3MU4zFBi6VKXaB5HFcI-39" value="Save Form to DB&amp;nbsp;" style="whiteSpace=wrap;html=1;rounded=1;" parent="1" vertex="1">
          <mxGeometry x="210" y="550" width="120" height="60" as="geometry" />
        </mxCell>
        <mxCell id="c3MU4zFBi6VKXaB5HFcI-49" value="" style="edgeStyle=orthogonalEdgeStyle;rounded=0;orthogonalLoop=1;jettySize=auto;html=1;" parent="1" source="c3MU4zFBi6VKXaB5HFcI-40" target="c3MU4zFBi6VKXaB5HFcI-47" edge="1">
          <mxGeometry relative="1" as="geometry" />
        </mxCell>
        <mxCell id="c3MU4zFBi6VKXaB5HFcI-50" style="edgeStyle=orthogonalEdgeStyle;rounded=0;orthogonalLoop=1;jettySize=auto;html=1;" parent="1" source="c3MU4zFBi6VKXaB5HFcI-40" target="c3MU4zFBi6VKXaB5HFcI-46" edge="1">
          <mxGeometry relative="1" as="geometry" />
        </mxCell>
        <mxCell id="c3MU4zFBi6VKXaB5HFcI-40" value="Start Camunda Process" style="whiteSpace=wrap;html=1;rounded=1;" parent="1" vertex="1">
          <mxGeometry x="470" y="550" width="120" height="60" as="geometry" />
        </mxCell>
        <mxCell id="c3MU4zFBi6VKXaB5HFcI-41" value="APPROOUVE&amp;nbsp; CONTINUE PROCESS" style="whiteSpace=wrap;html=1;rounded=1;" parent="1" vertex="1">
          <mxGeometry x="-70" y="690" width="120" height="60" as="geometry" />
        </mxCell>
        <mxCell id="c3MU4zFBi6VKXaB5HFcI-44" value="REJECT&amp;nbsp;&amp;nbsp;&lt;br&gt;END&amp;nbsp;&lt;br&gt;PROCESS" style="whiteSpace=wrap;html=1;rounded=1;" parent="1" vertex="1">
          <mxGeometry x="120" y="690" width="120" height="60" as="geometry" />
        </mxCell>
        <mxCell id="c3MU4zFBi6VKXaB5HFcI-46" value="APPROOUVE&amp;nbsp; CONTINUE PROCESS" style="whiteSpace=wrap;html=1;rounded=1;" parent="1" vertex="1">
          <mxGeometry x="400" y="670" width="120" height="60" as="geometry" />
        </mxCell>
        <mxCell id="c3MU4zFBi6VKXaB5HFcI-47" value="REJECT&amp;nbsp;&amp;nbsp;&lt;br&gt;END&amp;nbsp;&lt;br&gt;PROCESS" style="whiteSpace=wrap;html=1;rounded=1;" parent="1" vertex="1">
          <mxGeometry x="547" y="670" width="120" height="60" as="geometry" />
        </mxCell>
        <mxCell id="c3MU4zFBi6VKXaB5HFcI-51" value="" style="sketch=0;pointerEvents=1;shadow=0;dashed=0;html=1;strokeColor=none;fillColor=#505050;labelPosition=center;verticalLabelPosition=bottom;verticalAlign=top;outlineConnect=0;align=center;shape=mxgraph.office.security.lock_protected;" parent="1" vertex="1">
          <mxGeometry x="-50" y="150" width="20" height="30" as="geometry" />
        </mxCell>
        <mxCell id="c3MU4zFBi6VKXaB5HFcI-52" value="" style="shape=datastore;whiteSpace=wrap;html=1;" parent="1" vertex="1">
          <mxGeometry x="-350" y="940" width="30" height="30" as="geometry" />
        </mxCell>
        <mxCell id="c3MU4zFBi6VKXaB5HFcI-53" style="edgeStyle=orthogonalEdgeStyle;rounded=0;orthogonalLoop=1;jettySize=auto;html=1;exitX=0.85;exitY=0.95;exitDx=0;exitDy=0;exitPerimeter=0;entryX=1;entryY=0.5;entryDx=0;entryDy=0;" parent="1" source="c3MU4zFBi6VKXaB5HFcI-52" target="c3MU4zFBi6VKXaB5HFcI-52" edge="1">
          <mxGeometry relative="1" as="geometry" />
        </mxCell>
        <mxCell id="c3MU4zFBi6VKXaB5HFcI-54" value="" style="shape=datastore;whiteSpace=wrap;html=1;" parent="1" vertex="1">
          <mxGeometry x="-240" y="630" width="30" height="30" as="geometry" />
        </mxCell>
        <mxCell id="c3MU4zFBi6VKXaB5HFcI-55" value="" style="shape=datastore;whiteSpace=wrap;html=1;" parent="1" vertex="1">
          <mxGeometry x="210" y="620" width="30" height="30" as="geometry" />
        </mxCell>
        <mxCell id="c3MU4zFBi6VKXaB5HFcI-56" value="&lt;font style=&quot;font-size: 51px;&quot;&gt;&lt;b&gt;user view&lt;/b&gt;&lt;/font&gt;" style="text;html=1;align=center;verticalAlign=middle;resizable=0;points=[];autosize=1;strokeColor=none;fillColor=none;" parent="1" vertex="1">
          <mxGeometry x="-160" y="15" width="260" height="70" as="geometry" />
        </mxCell>
        <mxCell id="df2VkAJ07nrxbvZ864---1" value="getCustomerDetail(&lt;br&gt;raison social ,&lt;br&gt;code gestionnaire)" style="whiteSpace=wrap;html=1;rounded=1;" vertex="1" parent="1">
          <mxGeometry x="-760" y="660" width="120" height="60" as="geometry" />
        </mxCell>
        <mxCell id="df2VkAJ07nrxbvZ864---4" value="Start Process on Load ( on sacan document or on validate form )" style="whiteSpace=wrap;html=1;rounded=1;" vertex="1" parent="1">
          <mxGeometry x="-650" y="740" width="120" height="60" as="geometry" />
        </mxCell>
        <mxCell id="df2VkAJ07nrxbvZ864---6" value="ASSIGN TASK TO Code Gestionnaire" style="whiteSpace=wrap;html=1;rounded=1;" vertex="1" parent="1">
          <mxGeometry x="-570" y="810" width="120" height="60" as="geometry" />
        </mxCell>
      </root>
    </mxGraphModel>
  </diagram>
</mxfile>
